<mxfile host="app.diagrams.net" modified="2024-01-10T06:58:41.559Z" agent="Mozilla/5.0 (Windows NT 10.0; Win64; x64) AppleWebKit/537.36 (KHTML, like Gecko) Chrome/120.0.0.0 Safari/537.36" version="22.1.16" etag="1k9dOTf6vBrDLYJOK7JL" type="github">
  <diagram name="페이지-1" id="KY0Hy9y00KnCY32axMAJ">
    <mxGraphModel>
      <root>
        <mxCell id="0" />
        <mxCell id="1" parent="0" />
      </root>
    </mxGraphModel>
  </diagram>
</mxfile>
